<svg width="380" height="33" viewBox="0 0 380 33" fill="none" xmlns="http://www.w3.org/2000/svg">
<g clip-path="url(#clip0_51_224)">
<path d="M0.177979 1.70787H8.43361C14.7678 1.70787 19.1352 3.73275 19.1352 9.29127C19.1352 13.4295 16.6892 15.4979 12.8464 16.4457V16.5315C16.9943 16.876 19.9219 19.5477 19.9219 23.7717C19.9219 30.2357 14.5056 31.7867 8.30248 31.7867H0.177979V1.70787ZM4.5453 28.2531H7.82213C11.7533 28.2531 15.291 27.4347 15.291 23.3836C15.291 18.7293 11.1431 18.0838 7.38594 18.0838H4.5453V28.2531V28.2531ZM4.5453 14.5488H6.9484C11.1859 14.5488 14.7678 14.1607 14.7678 9.72291C14.7678 6.14571 11.6663 5.24151 9.13206 5.24151H4.5453V14.5488ZM37.533 1.70787H42.1198L55.0064 31.7867H50.2443L47.1441 24.202H32.205L29.1035 31.7867H24.5154L37.5344 1.70787H37.533ZM39.6739 5.75895L33.6019 20.6683H45.7459L39.6739 5.75895V5.75895ZM61.6885 1.70787H67.6293L81.0832 25.9259H81.1701V1.70787H85.5388V31.7867H79.9472L66.1441 7.0499H66.0571V31.7867H61.6871V1.70787H61.6885ZM118.521 7.05123C116.38 5.67183 114.066 4.98279 110.134 4.98279C103.1 4.98279 98.4267 10.0252 98.4267 16.7466C98.4267 23.8139 103.582 28.5118 109.916 28.5118C112.93 28.5118 113.716 28.2095 114.808 27.9944V18.8586H108.387V15.325H119.177V30.967C117.516 31.528 114.634 32.3042 109.872 32.3042C100.218 32.3042 93.7971 26.1846 93.7971 16.6186C93.7971 7.3522 100.612 1.19043 109.916 1.19043C114.372 1.19043 116.336 1.83723 118.87 2.69919L118.521 7.05123V7.05123ZM195.533 1.19043C204.795 1.19043 210.211 7.8274 210.211 16.7466C210.211 25.8824 204.839 32.3042 195.533 32.3042C186.229 32.3042 180.856 25.8824 180.856 16.7466C180.856 7.8274 186.274 1.19043 195.534 1.19043H195.533ZM195.533 28.5118C202.567 28.5118 205.581 22.7368 205.581 16.7466C205.581 10.6284 202.26 4.93923 195.533 4.98279C188.806 4.93923 185.487 10.6284 185.487 16.7466C185.487 22.7368 188.501 28.5118 195.533 28.5118ZM218.907 1.70787H223.275V27.9944H236.031V31.7867H218.907V1.70787V1.70787ZM265.457 19.3325C265.457 27.7792 261.132 32.3042 253.619 32.3042C246.106 32.3042 241.78 27.7792 241.78 19.3325V1.70787H246.149V18.7728C246.149 24.5478 247.985 28.5118 253.619 28.5118C259.254 28.5118 261.088 24.5478 261.088 18.7728V1.70787H265.457V19.3325V19.3325ZM275.998 1.70787H292.203V5.49891H280.365V14.2901H291.679V18.0838H280.365V31.7854H275.998V1.70787V1.70787ZM316.533 6.23283C314.305 5.37087 313.083 4.98279 310.811 4.98279C308.365 4.98279 305.481 5.84475 305.481 8.99031C305.481 14.764 318.586 13.4295 318.586 23.34C318.586 29.7618 313.563 32.3042 307.448 32.3042C305.307 32.3042 303.211 31.7009 301.201 31.0541L301.637 27.0466C303.122 27.6498 305.745 28.5118 307.971 28.5118C310.461 28.5118 313.956 27.1324 313.956 23.5987C313.956 16.876 300.852 18.7293 300.852 9.37838C300.852 4.03502 305.133 1.19043 310.635 1.19043C312.645 1.19043 315.048 1.53495 317.145 2.26755L316.533 6.23283V6.23283ZM328.513 1.70787H345.591V5.49891H332.88V14.2901H344.457V18.0838H332.88V27.9944H345.591V31.7867H328.513V1.70787ZM355.692 1.70787H361.633L375.087 25.9259H375.174V1.70787H379.542V31.7867H373.951L360.148 7.0499H360.059V31.7867H355.692V1.70787ZM162.826 31.3445L158.508 27.0849C157.783 27.7792 157.068 28.4841 155.716 29.8199C153.036 32.4639 147.51 33.8829 143.413 29.841C139.255 25.7385 140.833 20.2063 143.391 17.6838C144.383 16.7057 145.567 15.5586 146.185 14.9488C145.651 14.3812 143.029 12.3616 143.029 8.70123C143.029 4.91547 146.119 1.19307 150.642 1.19307C153.945 1.19307 155.8 3.19023 156.034 3.42255L152.959 6.44534C152.658 6.14063 152.297 5.89958 151.899 5.73687C151.5 5.57416 151.072 5.4932 150.641 5.49891C149.212 5.49891 147.378 6.6407 147.378 8.71707C147.378 10.0252 148.258 10.8951 148.369 11.0046C149.826 12.4408 158.492 21.0234 158.492 21.0234L161.578 17.9769L164.648 21.0221L161.563 24.0515L165.879 28.3112L162.826 31.3445V31.3445ZM149.254 17.9993L146.483 20.7317C145.002 22.1943 144.565 24.8976 146.483 26.7905C148.402 28.6834 151.13 28.2623 152.625 26.8116C154.115 25.3596 155.439 24.0357 155.439 24.0357L149.254 17.9993V17.9993Z" fill="#1F1F1F"/>
</g>
<defs>
<clipPath id="clip0_51_224">
<rect width="380" height="33" fill="white"/>
</clipPath>
</defs>
</svg>
