<svg width="320" height="44" viewBox="0 0 320 44" fill="none" xmlns="http://www.w3.org/2000/svg">
<rect width="320" height="44" fill="#1F1F1F"/>
<path d="M126.627 19.657C126.205 17.0128 124.134 15.4673 121.52 15.4673C118.32 15.4673 115.96 17.864 115.96 21.8182C115.96 25.7724 118.308 28.169 121.52 28.169C124.237 28.169 126.223 26.4666 126.627 24.0217L124.744 24.0156C124.424 25.5973 123.096 26.4666 121.532 26.4666C119.413 26.4666 117.813 24.8427 117.813 21.8182C117.813 18.8178 119.407 17.1697 121.538 17.1697C123.114 17.1697 124.436 18.0572 124.744 19.657H126.627ZM132.62 28.1871C135.234 28.1871 136.943 26.2734 136.943 23.4059C136.943 20.5202 135.234 18.6065 132.62 18.6065C130.006 18.6065 128.298 20.5202 128.298 23.4059C128.298 26.2734 130.006 28.1871 132.62 28.1871ZM132.626 26.6719C130.918 26.6719 130.121 25.1808 130.121 23.3999C130.121 21.625 130.918 20.1158 132.626 20.1158C134.323 20.1158 135.12 21.625 135.12 23.3999C135.12 25.1808 134.323 26.6719 132.626 26.6719ZM140.763 22.4943C140.763 21.0153 141.668 20.1701 142.924 20.1701C144.149 20.1701 144.892 20.973 144.892 22.3192V28H146.697V22.1019C146.697 19.8079 145.435 18.6065 143.54 18.6065C142.145 18.6065 141.233 19.2525 140.805 20.2365H140.69V18.7273H138.958V28H140.763V22.4943ZM153.446 18.7273H151.545V16.5057H149.74V18.7273H148.381V20.1761H149.74V25.6516C149.733 27.3359 151.019 28.1509 152.444 28.1207C153.018 28.1147 153.404 28.006 153.615 27.9276L153.289 26.4364C153.169 26.4606 152.945 26.5149 152.655 26.5149C152.07 26.5149 151.545 26.3217 151.545 25.2773V20.1761H153.446V18.7273ZM158.141 28.2053C159.675 28.2053 160.538 27.4265 160.882 26.7322H160.955V28H162.717V21.8423C162.717 19.1438 160.592 18.6065 159.119 18.6065C157.441 18.6065 155.896 19.2827 155.292 20.973L156.988 21.3594C157.254 20.7013 157.93 20.0675 159.144 20.0675C160.309 20.0675 160.906 20.6772 160.906 21.7276V21.7699C160.906 22.4279 160.23 22.4158 158.564 22.609C156.807 22.8143 155.008 23.2731 155.008 25.38C155.008 27.2031 156.379 28.2053 158.141 28.2053ZM158.534 26.7564C157.514 26.7564 156.777 26.2976 156.777 25.4041C156.777 24.4382 157.634 24.0941 158.679 23.9553C159.264 23.8768 160.653 23.7198 160.912 23.4602V24.6555C160.912 25.7543 160.037 26.7564 158.534 26.7564ZM169.028 28.1871C171.219 28.1871 172.638 26.8711 172.837 25.0661H171.08C170.851 26.0682 170.072 26.6598 169.04 26.6598C167.512 26.6598 166.528 25.386 166.528 23.3636C166.528 21.3775 167.53 20.1278 169.04 20.1278C170.187 20.1278 170.887 20.8523 171.08 21.7216H172.837C172.644 19.8501 171.116 18.6065 169.009 18.6065C166.395 18.6065 164.705 20.5746 164.705 23.4059C164.705 26.201 166.335 28.1871 169.028 28.1871ZM179.096 18.7273H177.194V16.5057H175.389V18.7273H174.031V20.1761H175.389V25.6516C175.383 27.3359 176.669 28.1509 178.093 28.1207C178.667 28.1147 179.053 28.006 179.265 27.9276L178.939 26.4364C178.818 26.4606 178.595 26.5149 178.305 26.5149C177.719 26.5149 177.194 26.3217 177.194 25.2773V20.1761H179.096V18.7273ZM191.465 24.1545C191.471 25.7301 190.3 26.4787 189.286 26.4787C188.169 26.4787 187.396 25.6697 187.396 24.408V18.7273H185.591V24.6254C185.591 26.9254 186.853 28.1207 188.634 28.1207C190.028 28.1207 190.976 27.3842 191.405 26.3942H191.502V28H193.276V18.7273H191.465V24.1545ZM202.65 20.9911C202.276 19.5483 201.147 18.6065 199.143 18.6065C197.048 18.6065 195.563 19.7113 195.563 21.3533C195.563 22.6694 196.36 23.5447 198.098 23.9311L199.668 24.2752C200.561 24.4744 200.978 24.8729 200.978 25.4524C200.978 26.1708 200.211 26.7322 199.028 26.7322C197.947 26.7322 197.253 26.2674 197.036 25.3558L195.291 25.6214C195.593 27.2635 196.957 28.1871 199.04 28.1871C201.28 28.1871 202.831 26.9979 202.831 25.3196C202.831 24.0096 201.998 23.2006 200.296 22.8082L198.823 22.4702C197.803 22.2287 197.362 21.8846 197.368 21.2567C197.362 20.5444 198.135 20.0373 199.161 20.0373C200.284 20.0373 200.803 20.6591 201.014 21.2809L202.65 20.9911Z" fill="white"/>
</svg>
