<svg width="160" height="44" viewBox="0 0 160 44" fill="none" xmlns="http://www.w3.org/2000/svg">
<rect width="160" height="44" fill="#1F1F1F"/>
<path d="M47.6271 19.657C47.2045 17.0128 45.1339 15.4673 42.5199 15.4673C39.3203 15.4673 36.9599 17.864 36.9599 21.8182C36.9599 25.7724 39.3082 28.169 42.5199 28.169C45.2365 28.169 47.2227 26.4666 47.6271 24.0217L45.7436 24.0156C45.4237 25.5973 44.0955 26.4666 42.532 26.4666C40.413 26.4666 38.8132 24.8427 38.8132 21.8182C38.8132 18.8178 40.407 17.1697 42.538 17.1697C44.1136 17.1697 45.4357 18.0572 45.7436 19.657H47.6271ZM53.6203 28.1871C56.2343 28.1871 57.9427 26.2734 57.9427 23.4059C57.9427 20.5202 56.2343 18.6065 53.6203 18.6065C51.0063 18.6065 49.2979 20.5202 49.2979 23.4059C49.2979 26.2734 51.0063 28.1871 53.6203 28.1871ZM53.6263 26.6719C51.9179 26.6719 51.121 25.1808 51.121 23.3999C51.121 21.625 51.9179 20.1158 53.6263 20.1158C55.3227 20.1158 56.1196 21.625 56.1196 23.3999C56.1196 25.1808 55.3227 26.6719 53.6263 26.6719ZM61.7626 22.4943C61.7626 21.0153 62.6681 20.1701 63.9238 20.1701C65.1493 20.1701 65.8919 20.973 65.8919 22.3192V28H67.6969V22.1019C67.6969 19.8079 66.4352 18.6065 64.5396 18.6065C63.1451 18.6065 62.2335 19.2525 61.8049 20.2365H61.6902V18.7273H59.9576V28H61.7626V22.4943ZM74.4462 18.7273H72.5446V16.5057H70.7395V18.7273H69.3812V20.1761H70.7395V25.6516C70.7335 27.3359 72.0194 28.1509 73.4441 28.1207C74.0176 28.1147 74.4039 28.006 74.6152 27.9276L74.2892 26.4364C74.1685 26.4606 73.9451 26.5149 73.6554 26.5149C73.0698 26.5149 72.5446 26.3217 72.5446 25.2773V20.1761H74.4462V18.7273ZM79.1414 28.2053C80.6748 28.2053 81.5381 27.4265 81.8822 26.7322H81.9546V28H83.7174V21.8423C83.7174 19.1438 81.5924 18.6065 80.1194 18.6065C78.4411 18.6065 76.8957 19.2827 76.292 20.973L77.9884 21.3594C78.254 20.7013 78.9301 20.0675 80.1436 20.0675C81.3087 20.0675 81.9063 20.6772 81.9063 21.7276V21.7699C81.9063 22.4279 81.2302 22.4158 79.564 22.609C77.8073 22.8143 76.0083 23.2731 76.0083 25.38C76.0083 27.2031 77.3786 28.2053 79.1414 28.2053ZM79.5338 26.7564C78.5136 26.7564 77.7771 26.2976 77.7771 25.4041C77.7771 24.4382 78.6343 24.0941 79.6787 23.9553C80.2643 23.8768 81.6528 23.7198 81.9124 23.4602V24.6555C81.9124 25.7543 81.037 26.7564 79.5338 26.7564ZM90.0275 28.1871C92.2189 28.1871 93.6376 26.8711 93.8368 25.0661H92.0801C91.8507 26.0682 91.0719 26.6598 90.0396 26.6598C88.5123 26.6598 87.5282 25.386 87.5282 23.3636C87.5282 21.3775 88.5304 20.1278 90.0396 20.1278C91.1866 20.1278 91.8869 20.8523 92.0801 21.7216H93.8368C93.6436 19.8501 92.1163 18.6065 90.0094 18.6065C87.3954 18.6065 85.7051 20.5746 85.7051 23.4059C85.7051 26.201 87.335 28.1871 90.0275 28.1871ZM100.096 18.7273H98.194V16.5057H96.3889V18.7273H95.0306V20.1761H96.3889V25.6516C96.3829 27.3359 97.6688 28.1509 99.0935 28.1207C99.667 28.1147 100.053 28.006 100.265 27.9276L99.9387 26.4364C99.8179 26.4606 99.5945 26.5149 99.3048 26.5149C98.7192 26.5149 98.194 26.3217 98.194 25.2773V20.1761H100.096V18.7273ZM112.465 24.1545C112.471 25.7301 111.3 26.4787 110.286 26.4787C109.169 26.4787 108.396 25.6697 108.396 24.408V18.7273H106.591V24.6254C106.591 26.9254 107.853 28.1207 109.634 28.1207C111.028 28.1207 111.976 27.3842 112.405 26.3942H112.502V28H114.276V18.7273H112.465V24.1545ZM123.65 20.9911C123.276 19.5483 122.147 18.6065 120.143 18.6065C118.048 18.6065 116.563 19.7113 116.563 21.3533C116.563 22.6694 117.36 23.5447 119.098 23.9311L120.668 24.2752C121.561 24.4744 121.978 24.8729 121.978 25.4524C121.978 26.1708 121.211 26.7322 120.028 26.7322C118.947 26.7322 118.253 26.2674 118.036 25.3558L116.291 25.6214C116.593 27.2635 117.957 28.1871 120.04 28.1871C122.28 28.1871 123.831 26.9979 123.831 25.3196C123.831 24.0096 122.998 23.2006 121.296 22.8082L119.823 22.4702C118.803 22.2287 118.362 21.8846 118.368 21.2567C118.362 20.5444 119.135 20.0373 120.161 20.0373C121.284 20.0373 121.803 20.6591 122.014 21.2809L123.65 20.9911Z" fill="white"/>
</svg>
