<svg width="160" height="70" viewBox="0 0 160 70" fill="none" xmlns="http://www.w3.org/2000/svg">
<g clip-path="url(#clip0_51_202)">
<path d="M97.1809 14.0073H79.5384V15.635C80.2452 15.6913 80.9478 15.793 81.6418 15.9394C82.1892 16.04 82.7039 16.2738 83.1411 16.6206C84.197 17.5252 84.1749 19.2199 84.1749 22.2883V42.8901C84.1749 47.0781 84.5462 53.0194 78.6515 52.9412C76.1213 52.9077 73.5272 51.0929 72.7208 47.7789H70.6921C71.5513 53.3321 74.4861 57.0984 81.603 57.0984H81.6363C87.6806 57.0984 93.0765 54.3065 93.0682 44.7915V22.2883C93.0682 19.2171 93.046 17.595 94.0991 16.6876C94.7809 16.1097 95.3352 15.8221 97.1809 15.635V14.0073Z" fill="#1F1F1F"/>
<path d="M117.434 14.0073H99.7693V15.635C101.615 15.8165 102.172 16.1013 102.846 16.682C103.691 17.4079 103.843 18.5973 103.871 20.6187C103.871 21.2329 103.871 21.9142 103.871 22.6791V47.321C103.871 48.086 103.871 48.7672 103.871 49.3814C103.843 51.4056 103.691 52.5922 102.846 53.3181C102.172 53.8988 101.615 54.1836 99.7693 54.3651V56.0012H126.449L129.262 47.7733H127.206C125.155 52.2935 121.985 52.8211 119.091 52.8211C116.727 52.8211 115.153 52.6871 114.036 51.9584C113.136 51.3777 112.8 49.8477 112.784 47.254V22.2883C112.784 19.2171 112.761 17.5252 113.815 16.6206C114.488 16.0399 115.597 15.8249 117.442 15.6434V14.0073H117.434Z" fill="#1F1F1F"/>
<path d="M146.855 14.0073H129.198V15.635C131.041 15.8165 131.598 16.1013 132.272 16.682C133.117 17.4079 133.27 18.5973 133.297 20.6187C133.297 21.2329 133.297 21.9142 133.297 22.6791V47.321C133.297 48.086 133.297 48.7672 133.297 49.3814C133.27 51.4056 133.117 52.5922 132.272 53.3181C131.598 53.8988 131.041 54.1836 129.198 54.3651V56.0012H155.876L158.691 47.7733H156.618C154.568 52.2935 151.397 52.8211 148.504 52.8211C146.14 52.8211 144.566 52.6871 143.449 51.9584C142.548 51.3777 142.213 49.8477 142.196 47.254V22.2883C142.196 19.2171 142.174 17.5252 143.23 16.6206C143.903 16.0399 145.012 15.8249 146.855 15.6434V14.0073Z" fill="#1F1F1F"/>
<path d="M28.4426 68.6822C29.2636 68.2985 30.0499 67.8436 30.7927 67.3226C30.9507 67.2109 31.1142 67.1076 31.2666 66.9903C32.201 66.2791 33.0726 65.4879 33.8717 64.6255C34.927 63.4958 35.8804 62.2737 36.7207 60.9736C37.3889 59.9468 38.0032 58.8853 38.5608 57.7936C40.6899 53.4795 42.1302 48.8541 42.8288 44.0879C43.285 41.0852 43.5111 38.0516 43.505 35.014C43.5112 31.9754 43.2851 28.9409 42.8288 25.9373C42.1304 21.172 40.6901 16.5475 38.5608 12.2344C38.3086 11.7374 38.0398 11.2461 37.7655 10.7603C36.6189 12.8925 35.6591 15.1215 34.8971 17.4219C36.2833 21.6491 37.1289 26.0372 37.4135 30.4799C37.516 31.9791 37.5548 33.4896 37.5576 35C37.5576 36.5105 37.5216 38.0209 37.419 39.5202C37.0866 44.9493 35.8878 50.289 33.8689 55.3339C33.0704 57.2848 32.1177 59.168 31.0199 60.9653C30.7622 61.3896 30.5211 61.8224 30.2467 62.2356C29.6925 63.0732 29.0828 63.894 28.4398 64.6953C27.7082 65.6149 26.9234 66.4903 26.0897 67.317C25.2053 68.1921 24.2556 68.9976 23.249 69.7264C23.1686 69.7851 23.0938 69.8465 23.0107 69.9051V70C24.8912 69.936 26.7392 69.4876 28.4426 68.6822Z" fill="#1F1F1F"/>
<path d="M39.2981 68.6821C40.12 68.2984 40.9072 67.8435 41.651 67.3225C41.8062 67.2108 41.9697 67.1075 42.1249 66.9902C45.2731 64.6143 47.6399 61.289 49.4163 57.7768C51.5466 53.4632 52.987 48.8375 53.6843 44.071C54.1405 41.0684 54.3666 38.0348 54.3605 34.9972C54.3662 31.9587 54.141 28.9243 53.687 25.9205C52.9888 21.1547 51.5475 16.5301 49.4163 12.2176C47.7757 8.98168 45.6251 5.90494 42.8232 3.58203C41.9316 4.55459 41.0987 5.58015 40.329 6.65319C40.5969 7.02545 40.8574 7.39771 41.1105 7.76997C45.5891 14.4707 47.7369 22.492 48.2828 30.4854C48.3863 31.9856 48.4371 33.4923 48.4353 35.0055C48.4353 36.516 48.3854 38.0264 48.2828 39.5257C47.7286 47.5191 45.5863 55.5432 41.1105 62.2411C40.5563 63.0787 39.9466 63.8995 39.3036 64.7008C38.5714 65.6191 37.7877 66.4944 36.9563 67.3225C36.0713 68.1969 35.1217 69.0024 34.1156 69.7319L33.8773 69.9106V70.0055C35.7544 69.9382 37.5985 69.488 39.2981 68.6821Z" fill="#1F1F1F"/>
<path d="M52.9802 66.9847C56.1313 64.6115 58.4953 61.2835 60.2717 57.7712C62.4029 53.4577 63.8442 48.8321 64.5424 44.0655C64.9992 41.0629 65.2243 38.0292 65.2158 34.9916C65.222 31.9531 64.996 28.9185 64.5396 25.915C63.8414 21.1492 62.4001 16.5245 60.2689 12.212C58.4925 8.70812 56.1285 5.38011 52.9775 2.99856C50.6301 1.24242 47.6841 0.0753829 44.7299 0V0.0949266C47.6065 2.11351 50.037 4.87755 51.9631 7.76444C56.4417 14.4651 58.5895 22.4864 59.1382 30.4798C59.238 31.98 59.2888 33.4868 59.2906 35C59.2925 36.5132 59.2417 38.02 59.1382 39.5202C58.5839 47.5136 56.4417 55.5377 51.9631 62.2356C50.0232 65.1224 47.6065 67.8865 44.7299 69.9051V70C47.6841 69.9246 50.6301 68.7576 52.9802 66.9847Z" fill="#1F1F1F"/>
<path d="M39.3008 1.3206C38.4797 1.70529 37.6934 2.16117 36.9507 2.68307C36.7927 2.79196 36.6292 2.89805 36.4768 3.01532C35.5431 3.72632 34.6716 4.51653 33.8717 5.37731C32.817 6.50861 31.8637 7.73159 31.0227 9.03199C30.3542 10.0615 29.74 11.1258 29.1825 12.2204C27.0533 16.5334 25.6129 21.158 24.9146 25.9233C24.4583 28.9269 24.2322 31.9614 24.2384 35C24.2323 38.0376 24.4583 41.0712 24.9146 44.0739C25.6117 48.8449 27.0521 53.4751 29.1825 57.7936C29.4347 58.2905 29.7035 58.7819 29.9779 59.2677C31.1264 57.1315 32.0862 54.8977 32.8463 52.5921C31.4573 48.3652 30.6089 43.9772 30.3216 39.5341C30.219 38.0349 30.1802 36.5244 30.1775 35.014C30.1775 33.5035 30.2135 31.9931 30.316 30.4938C30.6485 25.0647 31.8472 19.725 33.8661 14.6801C34.6663 12.7236 35.6209 10.8348 36.7207 9.03199C36.9784 8.6104 37.2195 8.17765 37.4939 7.76444C38.0481 6.92685 38.6578 6.10601 39.3008 5.30472C40.0324 4.38514 40.8172 3.50975 41.6509 2.68307C42.5349 1.80923 43.4846 1.00555 44.4916 0.279196C44.572 0.220565 44.6468 0.15635 44.7299 0.100511V0C42.8501 0.065262 41.0031 0.514545 39.3008 1.3206Z" fill="#1F1F1F"/>
<path d="M28.4453 1.3206C27.6233 1.70529 26.8361 2.16116 26.0924 2.68307C25.9372 2.79196 25.7737 2.89805 25.6185 3.01532C22.4702 5.38848 20.1035 8.7165 18.327 12.2288C16.1967 16.5414 14.7563 21.1661 14.0591 25.9317C13.6028 28.9353 13.3767 31.9698 13.3829 35.0084C13.3758 38.0459 13.601 41.0795 14.0564 44.0822C14.7553 48.8505 16.1966 53.4778 18.327 57.7936C19.9677 61.0294 22.1183 64.1062 24.9201 66.4291C25.8106 65.4604 26.6435 64.4396 27.4144 63.3719C27.1465 62.9996 26.886 62.6274 26.6328 62.2551C22.1571 55.5544 20.0065 47.5331 19.4605 39.5397C19.358 38.0404 19.3081 36.53 19.3081 35.0195C19.3081 33.5091 19.358 31.9986 19.4605 30.4994C20.0148 22.506 22.1571 14.4819 26.6328 7.78398C27.1871 6.94639 27.7968 6.12556 28.4398 5.32427C29.1719 4.40599 29.9557 3.53068 30.7871 2.70262C31.6734 1.82314 32.6248 1.01299 33.6333 0.279196C33.7137 0.220565 33.7913 0.15635 33.8717 0.100511V0C31.9928 0.0656378 30.1467 0.514912 28.4453 1.3206Z" fill="#1F1F1F"/>
<path d="M14.7631 3.01532C11.6121 5.38848 9.24809 8.7165 7.48272 12.2204C5.34772 16.5322 3.90264 21.1569 3.20096 25.9233C2.74419 28.9268 2.51904 31.9615 2.52751 35C2.52137 38.0376 2.74744 41.0712 3.20373 44.0739C3.9031 48.8458 5.34728 53.4762 7.48272 57.7936C9.25917 61.2975 11.6232 64.6255 14.7742 67.007C17.1243 68.7799 20.0703 69.947 23.0246 70.0223V69.9274C20.1396 67.8865 17.7091 65.1224 15.7968 62.2356C11.3183 55.5349 9.17049 47.5136 8.62176 39.5202C8.52199 38.0209 8.4721 36.5104 8.4721 35C8.4721 33.4895 8.52199 31.9791 8.62176 30.4798C9.14555 22.4864 11.3044 14.4623 15.7968 7.76444C17.7091 4.87755 20.1396 2.11351 23.0163 0.0949266V0C20.0592 0.0753829 17.1132 1.24242 14.7631 3.01532Z" fill="#1F1F1F"/>
<path d="M35.7756 66.415C36.6681 65.4432 37.5011 64.4176 38.2699 63.3438C38.0001 62.9715 37.7396 62.5993 37.4883 62.227C37.2112 61.8138 36.9729 61.3894 36.7151 60.9595C35.8742 62.2599 34.9208 63.4828 33.8661 64.6141C34.4641 65.25 35.0999 65.8486 35.7701 66.4066" fill="#1F1F1F"/>
<path d="M41.6509 67.3169C40.9085 67.8393 40.1221 68.2952 39.3008 68.6794C41.0022 69.4851 42.8483 69.9343 44.7271 70V69.905C43.6324 69.1296 42.6035 68.2639 41.6509 67.3169Z" fill="#1F1F1F"/>
<path d="M32.8463 69.9274C33.14 69.8967 33.4338 69.8464 33.7248 69.7962C33.4283 69.584 33.1345 69.3662 32.8463 69.1373C32.1297 68.5682 31.4442 67.9605 30.7927 67.3169C30.05 67.8388 29.2636 68.2947 28.4426 68.6794C29.5663 69.1997 30.7507 69.5749 31.9677 69.7962C32.2615 69.8464 32.5525 69.8967 32.8463 69.9274ZM33.8717 70V69.905C33.8218 69.8687 33.7747 69.8297 33.7248 69.7962C33.4477 69.8464 33.14 69.8967 32.8463 69.9274C33.1872 69.9637 33.5308 69.9916 33.8717 70Z" fill="#1F1F1F"/>
<path d="M31.9677 3.58496C31.0761 4.55745 30.2431 5.58302 29.4735 6.65612C29.7414 7.02838 30.0019 7.40064 30.255 7.7729C30.5322 8.18611 30.7705 8.61049 31.031 9.04045C31.871 7.74011 32.8234 6.51712 33.8772 5.38578C33.28 4.7492 32.6441 4.15057 31.9733 3.59334" fill="#1F1F1F"/>
<path d="M26.0952 2.68307C26.8376 2.16058 27.6239 1.70467 28.4453 1.3206C26.7429 0.515207 24.8959 0.0659565 23.0162 0V0V0.0949266C24.1118 0.870383 25.1417 1.73607 26.0952 2.68307Z" fill="#1F1F1F"/>
<path d="M39.3008 1.3206C38.1771 0.800313 36.9927 0.425083 35.7756 0.203813C35.4736 0.153558 35.1964 0.103302 34.8971 0.0725909C34.5562 0.0362955 34.2154 0.00837588 33.8717 0V0.0949266C33.9216 0.131222 33.9687 0.17031 34.0186 0.203813C34.3151 0.416002 34.6089 0.633775 34.8971 0.859923C35.6137 1.42996 36.2992 2.03856 36.9507 2.68307C37.6934 2.16117 38.4797 1.70529 39.3008 1.3206Z" fill="#1F1F1F"/>
</g>
<defs>
<clipPath id="clip0_51_202">
<rect width="160" height="70" fill="white"/>
</clipPath>
</defs>
</svg>
