<svg width="40" height="40" viewBox="0 0 40 40" fill="none" xmlns="http://www.w3.org/2000/svg">
<path d="M4.05069 20.247C3.94762 19.9977 4.005 19.7108 4.196 19.5203L16.196 7.52034C16.4608 7.26453 16.8829 7.2719 17.1387 7.53671C17.3882 7.79509 17.3882 8.20465 17.1387 8.46296L6.276 19.3257H35.3333C35.7015 19.3257 36 19.6242 36 19.9924C36 20.3606 35.7015 20.6591 35.3333 20.6591H6.276L17.1373 31.5204C17.4021 31.7762 17.4095 32.1982 17.1537 32.4631C16.8979 32.7279 16.4759 32.7352 16.211 32.4795C16.2054 32.4741 16.2 32.4687 16.1946 32.4631L4.19463 20.4631C4.133 20.4012 4.08406 20.3278 4.05069 20.247Z" fill="#2196F3"/>
<path d="M16.6667 32.6592C17.0349 32.6599 17.3339 32.3619 17.3346 31.9937C17.3349 31.8162 17.2644 31.6459 17.1387 31.5205L5.60932 19.9926L17.1387 8.46459C17.3945 8.19978 17.3871 7.77772 17.1223 7.5219C16.8639 7.2724 16.4544 7.2724 16.1961 7.5219L4.19607 19.5219C3.93582 19.7822 3.93582 20.2042 4.19607 20.4646L16.1961 32.4646C16.3209 32.5892 16.4902 32.6592 16.6667 32.6592Z" fill="#1F1F1F"/>
<path d="M4.66669 20.6593H35.3333C35.7015 20.6593 36 20.3609 36 19.9927C36 19.6245 35.7015 19.326 35.3333 19.326H4.66662C4.29844 19.326 3.99994 19.6245 3.99994 19.9927C4 20.3609 4.2985 20.6593 4.66669 20.6593Z" fill="#1F1F1F"/>
</svg>
