<svg width="130" height="30" viewBox="0 0 130 30" fill="none" xmlns="http://www.w3.org/2000/svg">
<path d="M32.5635 5.01848C31.5955 3.33489 28.8291 2.99115 24.7529 4.04019C22.7845 2.50946 20.4069 1.60186 17.923 1.433C15.4392 1.26415 12.9615 1.84168 10.8056 3.09204C8.64972 4.34239 6.91319 6.20897 5.81722 8.454C4.72126 10.699 4.31547 13.2209 4.65155 15.6984C1.71273 18.7174 0.627535 21.2934 1.59478 22.976C2.19829 24.0259 3.46868 24.5571 5.33018 24.5571C6.45977 24.5369 7.58383 24.3934 8.6825 24.129C8.91961 24.0757 9.16098 24.0165 9.40463 23.9538C11.3731 25.4848 13.7508 26.3927 16.2349 26.5617C18.7189 26.7308 21.1968 26.1533 23.3529 24.9028C25.509 23.6524 27.2457 21.7856 28.3416 19.5403C29.4376 17.2951 29.8433 14.773 29.507 12.2953C29.6786 12.1194 29.8476 11.941 30.014 11.7601C32.5976 8.94233 33.4792 6.61147 32.5635 5.01848ZM17.0792 3.00831C19.5902 3.01166 22.024 3.88095 23.9733 5.47077C25.9226 7.06059 27.2692 9.27449 27.7878 11.7421C25.6062 13.8533 22.6654 16.0191 19.3475 17.9431C16.0324 19.8655 12.6974 21.3395 9.78798 22.1819C8.13547 20.6993 6.97039 18.7475 6.44705 16.5851C5.92371 14.4226 6.0668 12.1515 6.85738 10.0725C7.64795 7.99356 9.0487 6.20486 10.8741 4.94334C12.6995 3.68183 14.8634 3.00702 17.0792 3.00831ZM2.98153 22.1719C2.41925 21.1938 3.60198 19.2888 5.06518 17.617C5.62869 19.4948 6.62078 21.2145 7.96251 22.6394C4.86651 23.2786 3.35887 22.8285 2.98153 22.1719ZM17.0792 24.9862C15.0664 24.9885 13.0924 24.4296 11.3771 23.3719C14.1228 22.4627 17.1499 21.0744 20.1481 19.3359C23.1463 17.5973 25.8569 15.6586 28.0136 13.7249C28.0159 13.8158 28.0205 13.9058 28.0205 13.9972C28.0172 16.9107 26.8634 19.7038 24.8123 21.764C22.7611 23.8241 19.98 24.9829 17.0792 24.9862ZM26.1952 5.35431C29.2734 4.71762 30.8007 5.1683 31.1768 5.82255C31.5539 6.4784 31.1892 8.01283 29.0946 10.3827C28.5314 8.50261 27.5385 6.78071 26.1952 5.35431Z" fill="#1F1F1F"/>
<path d="M51.7927 18.8124H41.8854L38.483 27.4562H36.5982L46.4054 2.86506H47.4895L57.0966 27.4562H55.1785L51.7927 18.8124ZM42.5026 17.2713H51.2256L47.9065 8.44329C47.6285 7.7509 47.295 6.79048 46.9058 5.56204C46.6056 6.63414 46.2775 7.60572 45.9217 8.47679L42.5026 17.2713Z" fill="#1F1F1F"/>
<path d="M66.9205 27.4562H65.2025V4.57371H57.2801V2.96557H74.8429V4.57371H66.9205V27.4562Z" fill="#1F1F1F"/>
<path d="M78.4789 27.4562V2.96557H80.1802V25.848H91.8054V27.4562H78.4789Z" fill="#1F1F1F"/>
<path d="M107.767 18.8124H97.8598L94.4573 27.4562H92.5726L102.38 2.86506H103.464L113.071 27.4562H111.153L107.767 18.8124ZM98.4769 17.2713H107.2L103.881 8.44329C103.603 7.7509 103.269 6.79048 102.88 5.56204C102.58 6.63414 102.252 7.60572 101.896 8.47679L98.4769 17.2713Z" fill="#1F1F1F"/>
<path d="M130 21.1409C130 23.1846 129.249 24.8039 127.748 25.9988C126.258 27.1937 124.274 27.7912 121.794 27.7912C118.814 27.7912 116.529 27.4618 114.939 26.8029V25.0942C116.696 25.8424 118.936 26.2166 121.661 26.2166C123.662 26.2166 125.247 25.7587 126.414 24.8429C127.593 23.916 128.182 22.7043 128.182 21.2079C128.182 20.281 127.987 19.516 127.598 18.9129C127.209 18.2987 126.575 17.7403 125.697 17.2378C124.818 16.7352 123.529 16.1936 121.827 15.6129C119.337 14.753 117.613 13.8261 116.657 12.8322C115.712 11.8271 115.239 10.4925 115.239 8.82857C115.239 6.99708 115.951 5.50621 117.374 4.35594C118.808 3.19451 120.649 2.61379 122.895 2.61379C125.185 2.61379 127.337 3.04933 129.35 3.9204L128.732 5.39453C126.709 4.54579 124.774 4.12142 122.928 4.12142C121.127 4.12142 119.692 4.54021 118.625 5.37778C117.558 6.21535 117.024 7.35445 117.024 8.79507C117.024 9.69965 117.185 10.4423 117.508 11.023C117.841 11.6037 118.38 12.1286 119.125 12.5976C119.87 13.0555 121.149 13.6083 122.962 14.256C124.863 14.9149 126.292 15.5571 127.248 16.1825C128.204 16.7967 128.899 17.5002 129.333 18.2931C129.778 19.0749 130 20.0241 130 21.1409Z" fill="#1F1F1F"/>
</svg>
