<svg width="160" height="54" viewBox="0 0 160 54" fill="none" xmlns="http://www.w3.org/2000/svg">
<g clip-path="url(#clip0_46_96)">
<path d="M21.7552 17.2631C23.9024 17.2631 25.7552 17.7257 27.3088 18.6475C28.864 19.571 30.0368 20.9153 30.8256 22.6755C32.2288 20.8719 33.7728 19.518 35.4608 18.6138C37.1472 17.7144 39.1296 17.2631 41.408 17.2631C44.8256 17.2631 47.464 18.2974 49.328 20.366C51.1904 22.433 52.1216 25.5343 52.1216 29.6651V52.9562H40.2272V30.9853C40.2272 29.4483 39.9376 28.414 39.3696 27.8856C38.8 27.3588 37.9888 27.0938 36.9376 27.0938C36.314 27.0816 35.6926 27.1711 35.0976 27.3588C34.5728 27.5355 34.0704 27.8647 33.5872 28.3482C33.1897 28.7486 32.8672 29.2175 32.6352 29.7326C32.392 30.2626 32.272 31.0094 32.272 31.9746V52.9546H20.376V30.9853C20.376 29.4483 20.088 28.414 19.5216 27.8856C18.952 27.3588 18.1408 27.0938 17.088 27.0938C16.3872 27.0938 15.776 27.1805 15.248 27.3588C14.7232 27.5355 14.2208 27.8647 13.7376 28.3482C13.3399 28.7488 13.0169 29.2176 12.784 29.7326C12.544 30.2626 12.4256 31.0094 12.4256 31.9746V52.9546H0.526367V18.3199H12.0944V22.6755C13.232 21.047 15.576 17.2631 21.7552 17.2631V17.2631ZM87.1072 25.6098C86.584 23.8737 85.728 22.3881 84.5472 21.1562C83.3632 19.926 81.7952 18.9688 79.8464 18.2862C77.8944 17.6052 75.4752 17.2631 72.5824 17.2631C67.9376 17.2631 64.2768 18.1657 61.6064 19.9677C58.9344 21.7729 57.2912 24.5209 56.6768 28.2132L67.3904 29.0725C67.7856 26.7855 69.3424 25.6435 72.0544 25.6435C73.3264 25.6435 74.3792 25.9728 75.2112 26.6297C76.0448 27.2914 76.4592 28.4798 76.4592 30.1951V31.5795L71.2672 31.8429C69.0807 31.9567 66.9057 32.2332 64.76 32.6701C62.744 33.0876 60.992 33.7461 59.504 34.6471C58.0608 35.5016 56.8522 36.7032 55.9872 38.1435C55.1328 39.5745 54.7056 41.346 54.7056 43.4548C54.7056 45.3017 55.0224 46.8757 55.6592 48.1734C56.2944 49.4695 57.1472 50.5487 58.2208 51.4064C59.3205 52.2766 60.5834 52.9156 61.9344 53.2855C63.3376 53.6822 64.8032 53.8797 66.3376 53.8797C68.616 53.8797 70.5776 53.4718 72.2208 52.6591C73.8656 51.8448 75.3888 50.6917 76.7888 49.1932V52.9546H87.8976V31.4478C87.8976 29.2941 87.6352 27.3492 87.1072 25.6098V25.6098ZM76.3936 39.4974C76.3936 41.566 75.7936 43.1159 74.5888 44.147C73.3824 45.1829 71.8608 45.6984 70.0192 45.6984C68.7936 45.6984 67.8384 45.4575 67.1584 44.9725C66.4816 44.4891 66.1424 43.6764 66.1424 42.5313C66.1424 41.3894 66.5904 40.4659 67.4896 39.7608C68.3872 39.0558 70.0848 38.6398 72.584 38.5081L76.3936 38.3073V39.4958V39.4974ZM107.027 37.3116L102.979 41.1629V52.9546H91.344V0.987305H102.976V28.8733L113.821 18.3199H127.661L115.195 30.3268L128.152 52.9562H115.6L107.027 37.3116Z" fill="#1F1F1F"/>
<path d="M159.474 34.6793C159.474 32.0405 159.122 29.6459 158.422 27.4906C157.723 25.3352 156.67 23.4963 155.269 21.9786C153.864 20.4625 152.133 19.2997 150.075 18.4854C148.014 17.6711 145.627 17.2632 142.912 17.2632C140.192 17.2632 137.75 17.684 135.581 18.5175C133.414 19.3543 131.573 20.5765 130.064 22.1793C128.549 23.7838 127.379 25.7641 126.547 28.1153C125.712 30.4698 125.296 33.1632 125.296 36.197C125.296 41.9162 126.762 46.3152 129.699 49.3924C132.635 52.4712 136.997 54.0131 142.779 54.0131C147.424 54.0131 151.15 52.998 153.947 50.976C156.757 48.9524 158.51 45.896 159.211 41.8054H148.102C147.446 44.2257 145.629 45.4351 142.648 45.4351C140.718 45.4351 139.309 44.8971 138.408 43.8194C137.512 42.7433 136.952 40.9462 136.731 38.4423H159.474V34.6809V34.6793ZM136.731 31.6471C136.907 29.8001 137.477 28.3482 138.443 27.2914C139.406 26.2362 140.896 25.7079 142.912 25.7079C144.752 25.7079 146.123 26.1704 147.018 27.0939C147.917 28.019 148.41 29.5351 148.496 31.6471H136.731V31.6471Z" fill="#1F1F1F"/>
</g>
<defs>
<clipPath id="clip0_46_96">
<rect width="160" height="54" fill="white"/>
</clipPath>
</defs>
</svg>
