<svg width="40" height="40" viewBox="0 0 40 40" fill="none" xmlns="http://www.w3.org/2000/svg">
<path d="M35.9493 20.247C36.0524 19.9977 35.995 19.7108 35.804 19.5203L23.804 7.52034C23.5392 7.26453 23.1171 7.2719 22.8613 7.53671C22.6118 7.79509 22.6118 8.20465 22.8613 8.46296L33.724 19.3257H4.66669C4.2985 19.3257 4 19.6242 4 19.9924C4 20.3606 4.2985 20.6591 4.66669 20.6591H33.724L22.8627 31.5204C22.5979 31.7762 22.5905 32.1982 22.8463 32.4631C23.1021 32.7279 23.5241 32.7352 23.789 32.4795C23.7946 32.4741 23.8 32.4687 23.8054 32.4631L35.8054 20.4631C35.867 20.4012 35.9159 20.3278 35.9493 20.247Z" fill="#2196F3"/>
<path d="M23.3333 32.6592C22.9651 32.6599 22.6661 32.3619 22.6654 31.9937C22.6651 31.8162 22.7356 31.6459 22.8613 31.5205L34.3907 19.9926L22.8613 8.46459C22.6055 8.19978 22.6129 7.77772 22.8777 7.5219C23.1361 7.2724 23.5456 7.2724 23.8039 7.5219L35.8039 19.5219C36.0642 19.7822 36.0642 20.2042 35.8039 20.4646L23.8039 32.4646C23.6791 32.5892 23.5098 32.6592 23.3333 32.6592Z" fill="#1F1F1F"/>
<path d="M35.3333 20.6593H4.66669C4.2985 20.6593 4 20.3609 4 19.9927C4 19.6245 4.2985 19.326 4.66669 19.326H35.3334C35.7016 19.326 36.0001 19.6245 36.0001 19.9927C36 20.3609 35.7015 20.6593 35.3333 20.6593Z" fill="#1F1F1F"/>
</svg>
