<svg width="160" height="46" viewBox="0 0 160 46" fill="none" xmlns="http://www.w3.org/2000/svg">
<g clip-path="url(#clip0_51_241)">
<path d="M33.7067 38.269C35.12 38.269 36.08 39.2666 36.08 40.5413C36.08 41.816 35.12 42.8136 33.7067 42.8136H31.36V45.5016H30.08V38.269H33.7067V38.269ZM33.52 41.6775C34.2667 41.6775 34.7467 41.1787 34.7467 40.569C34.7467 39.9317 34.2667 39.4606 33.52 39.4606H31.3333V41.7052L33.52 41.6775V41.6775ZM42.24 45.5016H40.96V38.269H44.6133C46.0267 38.269 46.96 39.2666 46.96 40.4859C46.96 41.5943 46.2133 42.4257 45.04 42.6196L47.0933 45.5016H45.5733L43.6267 42.7028H42.2667V45.5016H42.24ZM44.4533 41.5666C45.1467 41.5666 45.6267 41.1232 45.6267 40.5136C45.6267 39.904 45.1467 39.4606 44.4533 39.4606H42.24V41.5666H44.4533V41.5666ZM58.8267 41.8714C58.8267 43.9497 57.1733 45.6401 55.1467 45.6401C53.12 45.6401 51.4667 43.9497 51.4667 41.8714C51.4667 39.7931 53.12 38.1028 55.1467 38.1028C57.2 38.1028 58.8267 39.7931 58.8267 41.8714ZM57.52 41.8714C57.52 40.5136 56.48 39.4052 55.1733 39.4052C53.8667 39.4052 52.8267 40.5136 52.8267 41.8714C52.8267 43.2293 53.8667 44.3377 55.1733 44.3377C56.4533 44.3654 57.52 43.257 57.52 41.8714ZM67.44 38.269C68.8533 38.269 69.8133 39.2666 69.8133 40.5413C69.8133 41.816 68.8533 42.8136 67.44 42.8136H65.0933V45.5016H63.8133V38.269H67.44V38.269ZM67.28 41.6775C68.0267 41.6775 68.5067 41.1787 68.5067 40.569C68.5067 39.9317 68.0267 39.4606 67.28 39.4606H65.0933V41.7052L67.28 41.6775ZM79.7333 41.3172V42.4534H75.9733V44.31H79.92V45.5016H74.6933V38.269H79.92V39.4606H75.9733V41.2895H79.7333V41.3172ZM86.2933 45.5016H85.0133V38.269H88.6667C90.08 38.269 91.0133 39.2666 91.0133 40.4859C91.0133 41.5943 90.2667 42.4257 89.0933 42.6196L91.1467 45.5016H89.6L87.6533 42.7028H86.2933V45.5016V45.5016ZM88.5067 41.5666C89.2 41.5666 89.68 41.1232 89.68 40.5136C89.68 39.904 89.2 39.4606 88.5067 39.4606H86.2933V41.5666H88.5067V41.5666ZM99.3067 39.4606V45.4738H98.0267V39.4606H95.44V38.269H101.893V39.4606H99.3067ZM106.667 38.269H107.947V45.5016H106.667V38.269V38.269ZM118.293 41.3172V42.4534H114.533V44.31H118.48V45.5016H113.253V38.269H118.48V39.4606H114.533V41.2895H118.293V41.3172ZM128.267 40.2365C127.76 39.7931 126.987 39.322 126.027 39.322C124.96 39.322 124.56 39.7654 124.56 40.2642C124.56 41.7883 129.067 40.375 129.067 43.3955C129.067 44.9196 127.84 45.6401 126.027 45.6401C124.56 45.6401 123.52 45.0859 123.013 44.6148L123.573 43.5341C124.133 44.0329 125.04 44.4208 126.053 44.4208C127.253 44.4208 127.733 43.9497 127.733 43.4232C127.733 41.8437 123.253 43.2016 123.253 40.2919C123.253 38.9341 124.373 38.1028 126.053 38.1028C127.387 38.1028 128.347 38.7401 128.827 39.1835L128.267 40.2365ZM4.26665 20.5895H0.799988V1.05336H10.64C14.4267 1.05336 17.0133 3.7136 17.0133 7.0389C17.0133 10.004 14.96 12.304 11.7867 12.8305L17.3333 20.5895H13.2L7.91999 13.0244H4.26665V20.5895ZM10.24 9.94854C12.1333 9.94854 13.44 8.72926 13.44 7.09432C13.44 5.43167 12.1067 4.24011 10.24 4.24011H4.26665V9.94854H10.24ZM47.12 10.8076C47.12 16.4329 42.6667 20.9775 37.2 20.9775C31.7333 20.9775 27.28 16.4052 27.28 10.8076C27.28 5.18227 31.7333 0.637695 37.2 0.637695C42.6933 0.637695 47.12 5.20998 47.12 10.8076ZM43.5467 10.8076C43.5467 7.12203 40.6933 4.10155 37.2 4.10155C33.68 4.10155 30.8533 7.09432 30.8533 10.8076C30.8533 14.4931 33.7067 17.5136 37.2 17.5136C40.72 17.5136 43.5467 14.5208 43.5467 10.8076ZM73.3333 6.42926C71.8133 5.01601 69.8667 4.01842 67.6 4.01842C63.8667 4.01842 61.0133 7.12203 61.04 10.7799C61.04 14.4931 63.8667 17.569 67.6 17.569C69.8933 17.569 71.84 16.5714 73.3333 15.1859V19.204C71.7867 20.3955 69.84 20.9775 67.6 20.9775C61.92 20.9775 57.4667 16.4052 57.4667 10.8076C57.4667 5.18227 61.92 0.637695 67.6 0.637695C69.84 0.637695 71.7333 1.21962 73.3333 2.49432V6.42926V6.42926ZM129.84 9.25577V12.3594H119.653V17.375H130.32V20.5618H116.187V1.05336H130.32V4.29553H119.653V9.25577H129.84ZM152.56 4.29553V20.5895H149.093V4.29553H142.107V1.05336H159.573V4.29553H152.56ZM96.6933 10.863L103.973 1.05336H99.6533L93.6 9.22806H89.7333V1.05336H86.2667V20.5895H89.7333V12.4148H93.6L99.6533 20.5895H103.973L96.6933 10.7799" fill="#1F1F1F"/>
</g>
<defs>
<clipPath id="clip0_51_241">
<rect width="160" height="46" fill="white"/>
</clipPath>
</defs>
</svg>
