<svg width="380" height="43" viewBox="0 0 380 43" fill="none" xmlns="http://www.w3.org/2000/svg">
<path d="M379.559 10.067C379.266 9.78643 378.909 9.6467 378.49 9.6467H373.036V4.44157C373.036 4.04081 372.889 3.70087 372.596 3.42031C372.302 3.14122 371.945 3 371.526 3C371.134 3 370.792 3.14122 370.498 3.42031C370.205 3.70087 370.057 4.04081 370.057 4.44157V9.6467H364.562C364.142 9.6467 363.786 9.78643 363.492 10.067C363.198 10.3476 363.052 10.6875 363.052 11.0879C363.052 11.4879 363.206 11.822 363.513 12.0885C363.821 12.3558 364.169 12.4889 364.562 12.4889H370.057V17.7346C370.057 18.1619 370.198 18.5096 370.478 18.7761C370.757 19.0434 371.106 19.1758 371.526 19.1758C371.945 19.1758 372.302 19.0357 372.596 18.7555C372.889 18.4764 373.036 18.135 373.036 17.7346V12.4889H378.49C378.936 12.4889 379.3 12.3558 379.581 12.0885C379.861 11.822 380 11.4879 380 11.0879C380 10.6875 379.854 10.3476 379.559 10.067Z" fill="#1F1F1F"/>
<path d="M171.416 28.3052C172.618 26.9978 173.219 25.4895 173.219 23.7803C173.219 21.8052 172.632 20.1904 171.458 18.9354C169.975 17.3607 167.682 16.5732 164.578 16.5732H155.055V42.3591H158.747V30.9881H162.816L169.695 42.3591H174.269L166.591 30.5873C168.605 30.3739 170.213 29.6136 171.416 28.3052ZM158.747 27.9059V19.6163H163.529C165.263 19.6163 166.591 19.8711 167.514 20.3773C168.717 21.045 169.318 22.1794 169.318 23.7803C169.318 25.3822 168.717 26.5174 167.514 27.184C166.619 27.6648 165.29 27.9059 163.529 27.9059H158.747ZM144.356 28.7063C145.783 28.2521 146.916 27.5449 147.755 26.5838C148.594 25.6226 149.013 24.4347 149.013 23.02C149.013 20.8842 148.258 19.2767 146.748 18.1954C145.237 17.114 143.252 16.5732 140.791 16.5732H131.393V42.3591H140.665C143.434 42.3591 145.685 41.7457 147.419 40.5172C149.266 39.2098 150.188 37.435 150.188 35.1922C150.188 33.4314 149.621 31.9161 148.489 30.6482C147.356 29.3802 145.979 28.7332 144.356 28.7063ZM135.085 19.6163H140.833C142.259 19.6163 143.35 19.9902 144.105 20.7375C144.776 21.4059 145.112 22.2996 145.112 23.4204C145.112 24.7816 144.622 25.783 143.643 26.423C142.805 26.9842 141.616 27.2644 140.078 27.2644H135.085V19.6163ZM144.189 38.4758C143.182 39.0096 141.937 39.2762 140.455 39.2762H135.085V30.3075H140.497C142.315 30.3075 143.734 30.7013 144.755 31.4888C145.776 32.277 146.287 33.4174 146.287 34.912C146.287 36.5409 145.587 37.7284 144.189 38.4758ZM232.917 37.1551L226.541 16.5732H222.345L215.885 37.1551L209.927 16.5732H206.11L214.039 42.3591H217.857L224.485 21.2983L231.03 42.3591H234.889L242.734 16.5732H238.916L232.917 37.1551ZM324.498 31.189H330.497V38.3961C328.79 39.2762 326.567 39.7168 323.826 39.7168C320.834 39.7168 318.338 38.7361 316.338 36.7743C314.339 34.8121 313.339 32.3766 313.339 29.4665C313.339 26.5303 314.276 24.0815 316.149 22.119C318.023 20.1572 320.484 19.1757 323.533 19.1757C324.987 19.1757 326.336 19.3899 327.581 19.8165C328.826 20.2438 329.966 20.9377 330.999 21.8988L333.601 19.2561C332.483 18.1357 331.126 17.295 329.531 16.7347C327.938 16.1739 325.938 15.8926 323.533 15.8926C319.45 15.8926 316.079 17.1878 313.422 19.777C310.765 22.3663 309.437 25.596 309.437 29.4665C309.437 33.2847 310.709 36.4605 313.254 38.9956C315.939 41.6653 319.492 42.9999 323.91 42.9999C325.672 42.9999 327.498 42.7927 329.386 42.3794C331.274 41.9661 332.86 41.3858 334.147 40.6377V27.9059H324.498V31.189ZM353.402 27.9059V31.189H359.402V38.3961C357.695 39.2762 355.486 39.7168 352.773 39.7168C349.78 39.7168 347.284 38.7361 345.285 36.7743C343.285 34.8121 342.285 32.3766 342.285 29.4665C342.285 26.5569 343.223 24.1143 345.096 22.1392C346.969 20.1645 349.431 19.1757 352.479 19.1757C353.907 19.1757 355.248 19.3899 356.508 19.8165C357.765 20.2438 358.913 20.9377 359.947 21.8988L362.548 19.2561C361.43 18.1357 360.073 17.295 358.479 16.7347C356.884 16.1739 354.885 15.8926 352.479 15.8926C348.368 15.8926 344.991 17.1944 342.348 19.797C339.705 22.3995 338.384 25.6233 338.384 29.4665C338.384 33.3108 339.642 36.4867 342.16 38.9956C344.844 41.6653 348.41 42.9999 352.857 42.9999C354.62 42.9999 356.437 42.7927 358.311 42.3794C360.185 41.9661 361.765 41.3858 363.051 40.6377V27.9059H353.402ZM300.333 42.3591H303.983V16.5732H300.333V42.3591ZM292.992 28.3052C294.193 26.9978 294.796 25.4895 294.796 23.7803C294.796 21.8052 294.208 20.1904 293.034 18.9354C291.551 17.3607 289.258 16.5732 286.154 16.5732H276.632V42.3591H280.281V30.9881H284.392L291.272 42.3591H295.845L288.168 30.5873C290.181 30.3739 291.789 29.6136 292.992 28.3052ZM280.281 27.9059V19.6163H285.105C286.839 19.6163 288.168 19.8711 289.09 20.3773C290.293 21.045 290.894 22.1794 290.894 23.7803C290.894 25.3822 290.293 26.5174 289.09 27.184C288.195 27.6648 286.867 27.9059 285.105 27.9059H280.281ZM190.588 15.8926C186.504 15.8926 183.134 17.1878 180.477 19.777C177.819 22.3663 176.492 25.596 176.492 29.4665C176.492 33.3108 177.819 36.5269 180.477 39.1162C183.134 41.7062 186.504 42.9999 190.588 42.9999C194.699 42.9999 198.076 41.7125 200.719 39.1372C203.361 36.5601 204.684 33.337 204.684 29.4665C204.684 25.6233 203.348 22.3995 200.677 19.797C198.005 17.1944 194.642 15.8926 190.588 15.8926ZM197.95 36.7743C196.062 38.7361 193.607 39.7168 190.588 39.7168C187.539 39.7168 185.078 38.7361 183.205 36.7743C181.33 34.8121 180.393 32.3766 180.393 29.4665C180.393 26.5303 181.33 24.0815 183.205 22.119C185.078 20.1572 187.539 19.1757 190.588 19.1757C193.607 19.1757 196.084 20.1904 198.013 22.2189C199.859 24.1674 200.783 26.5838 200.783 29.4665C200.783 32.3766 199.838 34.8121 197.95 36.7743ZM265.975 37.7546L251.082 16.5732H246.258V42.3591H249.908L249.991 21.1382L265.053 42.3591H269.709V16.5732H266.018L265.975 37.7546ZM14.5152 29.263C12.389 28.5437 10.2637 27.8089 8.1387 27.0616C5.84532 26.2077 4.69881 24.8989 4.69881 23.1369C4.69881 22.1496 5.07621 21.2949 5.83101 20.5742C6.78207 19.6668 8.15223 19.2126 9.94306 19.2126C12.1511 19.2126 13.7592 19.9603 14.767 21.455L17.7453 18.8524C16.7935 17.7319 15.6744 16.9647 14.3888 16.5503C13.1017 16.1363 11.6199 15.9294 9.94306 15.9294C6.97752 15.9294 4.64204 16.7568 2.93618 18.4118C1.50962 19.7734 0.797309 21.3488 0.797309 23.1369C0.797309 25.9931 1.95693 28.1157 4.27893 29.5034C4.47398 29.61 6.60012 30.3975 10.6562 31.8656C12.948 32.6933 14.0957 33.8808 14.0957 35.4293C14.0957 36.7643 13.4942 37.8461 12.2921 38.6723C11.2564 39.3934 10.0682 39.7533 8.72586 39.7533C7.57935 39.7533 6.49544 39.5199 5.47448 39.0531C4.45352 38.5871 3.63536 37.8855 3.02 36.9509L0 39.4333C0.894636 40.6344 2.09677 41.5285 3.60717 42.1155C5.11754 42.7028 6.78207 42.9966 8.59994 42.9966C11.2846 42.9966 13.5216 42.2762 15.3117 40.835C17.101 39.3934 17.9964 37.4582 17.9964 35.0289C17.9964 32.4135 16.8364 30.4915 14.5152 29.263ZM38.6161 38.853C37.4275 39.4535 36.0778 39.7533 34.5682 39.7533C31.4906 39.7533 29.0153 38.7527 27.1426 36.7507C25.3807 34.8822 24.4992 32.5333 24.4992 29.7036C24.4992 26.7139 25.4367 24.2179 27.3102 22.2167C29.1833 20.2139 31.6034 19.2126 34.5682 19.2126C35.8255 19.2126 37.0431 19.4729 38.217 19.9938C39.3925 20.5144 40.3443 21.2286 41.0706 22.1356L44.1334 19.9334C43.0696 18.5991 41.6998 17.5981 40.0214 16.9315C38.3434 16.2631 36.5684 15.9294 34.6941 15.9294C30.5264 15.9294 27.136 17.2173 24.5208 19.7944C21.906 22.3697 20.5984 25.6738 20.5984 29.7036C20.5984 33.1475 21.8419 36.1766 24.3323 38.7936C27.017 41.5956 30.4009 42.9966 34.4843 42.9966C37.0848 42.9966 39.4628 42.3706 41.6156 41.1148C42.9587 40.3144 43.9932 39.4465 44.7194 38.5123L41.6156 36.2699C40.8052 37.3911 39.8047 38.252 38.6161 38.853ZM59.8233 15.9294C55.7109 15.9294 52.3339 17.2173 49.6913 19.7944C47.0488 22.3697 45.7273 25.5927 45.7273 29.4632C45.7273 33.3075 47.0553 36.5243 49.7122 39.1129C52.3695 41.7022 55.7399 42.9966 59.8233 42.9966C63.9345 42.9966 67.3111 41.7092 69.9545 39.1328C72.5971 36.5575 73.919 33.3344 73.919 29.4632C73.919 25.5927 72.5971 22.3697 69.9545 19.7944C67.3111 17.2173 63.9345 15.9294 59.8233 15.9294ZM67.2068 36.8108C65.3318 38.7729 62.8715 39.7533 59.8233 39.7533C56.8018 39.7533 54.3481 38.7597 52.4603 36.7706C50.5721 34.7819 49.6288 32.3464 49.6288 29.4632C49.6288 26.5539 50.5721 24.1184 52.4603 22.1566C54.3481 20.1937 56.8018 19.2126 59.8233 19.2126C62.8715 19.2126 65.3318 20.1937 67.2068 22.1566C69.0803 24.1184 70.0178 26.5539 70.0178 29.4632C70.0178 32.3994 69.0803 34.849 67.2068 36.8108ZM97.0341 19.8545H105.383V42.3558H109.032V19.8545H117.759V16.5698H97.0341V19.8545ZM74.8009 19.8545H83.4839V42.3558H87.1327V19.8545H95.4812V16.5698H74.8009V19.8545Z" fill="#1F1F1F"/>
</svg>
