<svg width="320" height="44" viewBox="0 0 320 44" fill="none" xmlns="http://www.w3.org/2000/svg">
<rect width="320" height="44" fill="#1F1F1F"/>
<path d="M119.439 15.6364H117.423L121.872 28H124.027L128.476 15.6364H126.46L123.019 25.706H122.88L119.439 15.6364ZM130.117 28H131.922V18.7273H130.117V28ZM131.028 17.2965C131.65 17.2965 132.169 16.8136 132.169 16.2219C132.169 15.6303 131.65 15.1413 131.028 15.1413C130.4 15.1413 129.887 15.6303 129.887 16.2219C129.887 16.8136 130.4 17.2965 131.028 17.2965ZM138.347 28.1871C140.369 28.1871 141.8 27.1911 142.21 25.6818L140.502 25.3739C140.176 26.2493 139.391 26.696 138.365 26.696C136.819 26.696 135.781 25.6939 135.733 23.907H142.325V23.267C142.325 19.9165 140.321 18.6065 138.22 18.6065C135.636 18.6065 133.934 20.5746 133.934 23.424C133.934 26.3036 135.612 28.1871 138.347 28.1871ZM135.739 22.5547C135.811 21.2386 136.765 20.0977 138.232 20.0977C139.632 20.0977 140.55 21.136 140.556 22.5547H135.739ZM146.321 28H148.157L150.04 21.305H150.179L152.062 28H153.904L156.626 18.7273H154.761L152.956 25.5067H152.865L151.054 18.7273H149.189L147.366 25.5369H147.275L145.458 18.7273H143.593L146.321 28ZM162.838 28H164.643V22.283C164.643 21.0334 165.519 20.1641 166.545 20.1641C167.547 20.1641 168.241 20.8281 168.241 21.8363V28H170.04V22.0898C170.04 20.973 170.723 20.1641 171.9 20.1641C172.854 20.1641 173.638 20.6953 173.638 21.951V28H175.444V21.782C175.444 19.663 174.26 18.6065 172.582 18.6065C171.248 18.6065 170.246 19.2464 169.799 20.2365H169.702C169.298 19.2223 168.447 18.6065 167.209 18.6065C165.984 18.6065 165.072 19.2163 164.686 20.2365H164.571V18.7273H162.838V28ZM181.769 28.1871C184.383 28.1871 186.091 26.2734 186.091 23.4059C186.091 20.5202 184.383 18.6065 181.769 18.6065C179.155 18.6065 177.446 20.5202 177.446 23.4059C177.446 26.2734 179.155 28.1871 181.769 28.1871ZM181.775 26.6719C180.066 26.6719 179.269 25.1808 179.269 23.3999C179.269 21.625 180.066 20.1158 181.775 20.1158C183.471 20.1158 184.268 21.625 184.268 23.3999C184.268 25.1808 183.471 26.6719 181.775 26.6719ZM188.106 28H189.911V22.3374C189.911 21.1239 190.847 20.2486 192.127 20.2486C192.501 20.2486 192.923 20.315 193.068 20.3572V18.6307C192.887 18.6065 192.531 18.5884 192.302 18.5884C191.215 18.5884 190.285 19.2042 189.947 20.2003H189.851V18.7273H188.106V28ZM198.295 28.1871C200.317 28.1871 201.748 27.1911 202.158 25.6818L200.45 25.3739C200.124 26.2493 199.339 26.696 198.313 26.696C196.767 26.696 195.729 25.6939 195.681 23.907H202.273V23.267C202.273 19.9165 200.269 18.6065 198.168 18.6065C195.584 18.6065 193.882 20.5746 193.882 23.424C193.882 26.3036 195.56 28.1871 198.295 28.1871ZM195.687 22.5547C195.759 21.2386 196.713 20.0977 198.18 20.0977C199.581 20.0977 200.498 21.136 200.504 22.5547H195.687Z" fill="white"/>
</svg>
