<svg width="160" height="34" viewBox="0 0 160 34" fill="none" xmlns="http://www.w3.org/2000/svg">
<g clip-path="url(#clip0_51_233)">
<path d="M13.4332 16.3795C14.4102 16.3795 15.263 16.4135 16.0187 16.5512C17.0944 16.7399 18.0051 18.2376 18.0051 18.9686C18.0051 19.3426 18.0051 19.7574 17.8417 20.3626C17.5762 21.2908 15.7515 24.6296 14.9923 25.8859C14.0783 24.4052 11.9268 20.2232 11.183 18.5946C10.8596 17.9112 10.6961 17.3434 10.6961 17.0646C10.6961 16.5512 11.7174 16.3795 13.4332 16.3795ZM1.24083 16.3795C2.15317 16.6056 2.68764 16.7943 3.43658 18.1339C6.07317 22.967 8.71317 28.2948 11.2817 33.5359C11.6051 33.8079 11.983 33.8691 12.5293 33.8691C13.057 33.8691 13.4315 33.8079 13.7685 33.5376C14.9923 31.2307 18.2213 25.0393 19.6136 22.6355C21.234 25.6071 24.0238 31.0301 25.1557 33.5376C25.4689 33.8096 25.857 33.8691 26.3864 33.8691C26.9225 33.8691 27.3089 33.8079 27.6204 33.5376C29.8994 28.5579 32.3019 23.6355 34.8255 18.7748C35.6868 17.0646 36.0596 16.6056 37.8349 16.2758L38.5872 16.1432C39.0161 15.7131 38.9055 14.705 38.4289 14.5112C37.2459 14.6047 35.8502 14.6523 34.2825 14.6523C32.9413 14.6523 31.6613 14.6047 29.8808 14.5112C29.343 14.705 29.343 15.8117 29.6715 16.1432L30.577 16.3183C31.5013 16.507 31.9234 16.7399 31.9234 16.9762C31.9234 17.3009 31.76 17.9503 31.4264 18.7748C30.577 20.9219 29.7344 23.1982 28.4289 25.8859C27.251 23.6521 25.7498 20.6431 24.7761 18.4127C24.4596 17.629 24.3506 17.3417 24.3506 16.9762C24.3506 16.7399 25.0944 16.507 26.3387 16.2758L27.1387 16.1432C27.5268 15.9545 27.5676 14.5673 26.9787 14.5112C23.8091 14.6046 20.6382 14.6517 17.4672 14.6523H6.61275C4.35573 14.6523 2.63998 14.6047 0.437428 14.5112C-0.112359 14.7441 -0.112359 15.7641 0.260407 16.1432L1.24083 16.3795Z" fill="#1F1F1F"/>
<path d="M46.1293 16.0822C47.9489 16.0822 48.977 17.0937 48.977 18.6288C48.977 19.0946 48.8697 19.5638 48.6025 19.6964C48.0017 20.0228 47.1438 20.1095 46.3931 20.1095H44.4085C42.6791 20.1095 41.937 20.0755 41.937 19.4176C41.937 17.9284 43.8723 16.0805 46.131 16.0805L46.1293 16.0822ZM46.0731 33.8064C49.2953 33.8064 53.2834 32.4583 55.4808 28.516C55.4808 27.7255 54.6655 27.3515 54.0817 27.4382C52.6297 29.5819 50.5804 29.8522 49.0808 29.8522C44.0868 29.8522 41.4995 26.4709 41.4995 22.991C41.4995 22.2498 41.6119 22.158 42.851 22.158H53.1574C54.8357 22.158 55.0978 21.5086 55.0978 20.628C55.0978 17.0495 52.0851 13.9419 46.4953 13.9419C39.7889 13.9419 34.897 18.4928 34.897 24.3425C34.897 29.4 38.8204 33.8064 46.0731 33.8064ZM68.8255 16.3797C69.8076 16.3797 70.6604 16.4137 71.4161 16.5514C72.4919 16.7401 73.4042 18.2378 73.4042 18.9688C73.4042 19.3428 73.4042 19.7576 73.2442 20.3628C72.9685 21.291 71.1455 24.6298 70.3966 25.8861C69.4723 24.4054 67.3327 20.2234 66.5804 18.5948C66.2638 17.9114 66.0953 17.3436 66.0953 17.0648C66.0953 16.5514 67.1097 16.3797 68.8255 16.3797ZM56.6348 16.3797C57.5557 16.6058 58.0851 16.7945 58.8374 18.1341C61.4655 22.9672 64.1123 28.295 66.6842 33.5361C67.011 33.8081 67.3855 33.8693 67.9234 33.8693C68.4561 33.8693 68.8255 33.8081 69.1557 33.5378C70.3983 31.2309 73.6153 25.0395 75.0161 22.6357C76.6331 25.6073 79.4144 31.0303 80.5463 33.5378C80.8697 33.8098 81.2442 33.8693 81.7787 33.8693C82.3217 33.8693 82.6995 33.8081 83.0178 33.5378C85.2996 28.5588 87.7031 23.6364 90.2263 18.775C91.0859 17.0648 91.457 16.6058 93.2289 16.276L93.988 16.1434C94.4119 15.7133 94.2995 14.7052 93.8229 14.5114C92.6348 14.6049 91.2459 14.6525 89.68 14.6525C88.2117 14.6455 86.7439 14.5984 85.2783 14.5114C84.7336 14.7052 84.7336 15.8119 85.0638 16.1434L85.9761 16.3185C86.8919 16.5072 87.3174 16.7401 87.3174 16.9764C87.3174 17.3011 87.1557 17.9505 86.8391 18.775C85.9761 20.9221 85.1148 23.1984 83.8212 25.8861C82.6434 23.6523 81.1421 20.6433 80.1753 18.4129C79.8485 17.6292 79.7412 17.3419 79.7412 16.9764C79.7412 16.7401 80.4885 16.5072 81.7327 16.276L82.5327 16.1434C82.9106 15.9547 82.9668 14.5675 82.3727 14.5114C78.9378 14.6049 76.2417 14.6525 72.8612 14.6525H62.0051C59.9458 14.6528 57.8868 14.6057 55.8297 14.5114C55.297 14.7443 55.297 15.7643 55.6714 16.1434L56.6348 16.3797Z" fill="#1F1F1F"/>
<path d="M102.642 16.0822C105.694 16.0822 107.2 19.9718 107.26 24.4802C107.306 28.6588 106.279 31.6729 103.214 31.6729C100.111 31.6729 98.3285 28.0927 98.3285 23.2273C98.3285 18.1749 100.274 16.0805 102.642 16.0805V16.0822ZM102.642 33.8064C109.243 33.8064 114.997 30.607 114.997 23.8223C114.997 17.2807 109.292 13.9419 102.957 13.9419C96.6128 13.9419 90.5396 17.6054 90.5907 24.2473C90.6536 30.6461 96.2349 33.8064 102.642 33.8064Z" fill="#1F1F1F"/>
<path d="M124.153 17.8739C124.485 17.8739 124.962 17.9249 126.192 18.8021C126.882 19.3631 127.528 19.6419 128.286 19.6419C130.002 19.6419 131.729 18.7613 131.729 16.6244C131.729 14.8717 130.225 13.8874 128.762 13.8874C126.514 13.8874 124.962 15.4174 123.501 16.2028C123.076 16.1178 122.963 15.9767 122.963 15.6486C122.963 15.2338 123.074 14.5895 123.173 13.6528C122.963 13.3774 122.633 13.2295 122.22 13.2295C120.546 14.1713 116.841 15.4174 114.361 16.0277C113.986 16.2997 113.986 17.1361 114.361 17.4166L115.127 17.8348C116.143 18.3924 116.143 18.9466 116.143 20.8064V27.8104C116.143 31.0574 115.927 31.4739 114.151 31.6201L113.128 31.7051C112.696 31.9839 112.696 33.0583 113.185 33.3371C115.298 33.2343 117.413 33.1867 119.528 33.1943C122.048 33.1943 124.202 33.2351 126.785 33.3354C127.268 33.0583 127.268 31.9839 126.834 31.7051L125.115 31.5759C123.341 31.428 123.123 31.0557 123.123 27.8104V20.6653C123.123 18.9041 123.396 17.8739 124.155 17.8739" fill="#1F1F1F"/>
<path d="M145.239 31.552L144.543 31.6965C144.107 32.113 144.213 33.082 144.752 33.3115C146.257 33.2197 148.186 33.1755 151.37 33.1755C154.485 33.1755 156.47 33.2197 158.131 33.3115C158.671 33.133 158.781 32.0178 158.344 31.6965L157.546 31.5503C156.151 31.3208 155.132 31.0811 154.38 30.4878C153.028 29.4219 148.298 23.1064 147.345 21.6223C147.067 21.2517 146.953 20.9763 146.953 20.8318C146.953 20.6958 147.009 20.5122 147.273 20.2266C148.029 19.5857 148.849 18.8768 150.883 17.5321C152.328 16.5665 153.467 16.1041 154.487 15.9137L156.199 15.5873C156.584 15.2252 156.531 14.1882 155.981 13.9638C152.819 14.3854 148.356 14.6132 145.826 14.6132H144.543C144.007 14.807 143.947 15.8202 144.431 16.2367L145.779 16.4305C146.257 16.4679 146.793 16.6515 146.793 16.8895C146.793 17.1683 146.534 17.6749 145.506 18.7357L143.256 21.0239C142.177 22.0864 141.049 22.3193 140.134 22.3193C139.551 22.3193 139.377 22.1799 139.377 21.6682V7.1009C139.377 4.1735 139.445 2.2219 139.551 0.323C139.34 0.085 138.951 0 138.631 0C135.884 1.0115 132.614 2.1369 130.414 2.5891C130.032 2.8747 130.032 3.7128 130.414 3.9763L131.326 4.4523C132.397 5.0116 132.397 5.5199 132.397 7.3865V27.7933C132.397 31.0403 132.18 31.4126 130.238 31.6047L129.217 31.6965C128.793 31.9685 128.793 33.0395 129.271 33.3115C131.457 33.2142 133.644 33.1689 135.831 33.1755C138.306 33.1755 140.56 33.2197 142.288 33.3115C142.764 33.0395 142.764 31.9685 142.339 31.6965L141.484 31.6047C139.595 31.4126 139.377 31.0386 139.377 27.7933V25.1073C139.377 24.2182 139.649 23.9921 140.02 23.9921C140.56 23.9921 140.992 24.1791 141.375 24.6755L145.185 29.699C145.615 30.2498 146.095 30.991 146.095 31.1916C146.095 31.3633 145.779 31.45 145.239 31.5503" fill="#1F1F1F"/>
</g>
<defs>
<clipPath id="clip0_51_233">
<rect width="160" height="34" fill="white"/>
</clipPath>
</defs>
</svg>
